<svg width="20" height="16" viewBox="0 0 20 16" fill="none" xmlns="http://www.w3.org/2000/svg">
<path d="M0.00147594 7.99977C0.00147593 8.1945 0.121957 8.45325 0.244239 8.57896L7.1358 15.7372C7.45759 16.0624 7.97888 16.1 8.35385 15.7701C8.68916 15.4749 8.69758 14.8996 8.3875 14.5791L2.85552 8.84209L18.5995 8.84209C19.0755 8.84209 19.4609 8.46497 19.4609 8.00004C19.4609 7.53481 19.0752 7.158 18.5995 7.158L2.85552 7.158L8.3875 1.42096C8.69757 1.10053 8.67564 0.539216 8.35385 0.230262C8.01434 -0.0960449 7.45247 -0.0669692 7.1358 0.263158L0.244239 7.42112C0.0417344 7.61526 0.00477566 7.80235 0.00147594 8.00002L0.00147594 7.99977Z" fill="#A569FF"/>
</svg>
