<?xml version="1.0" encoding="UTF-8"?>
<svg width="20px" height="16px" viewBox="0 0 20 16" version="1.1" xmlns="http://www.w3.org/2000/svg" xmlns:xlink="http://www.w3.org/1999/xlink">
    <title>arrow-left</title>
    <g id="Page-1" stroke="none" stroke-width="1" fill="none" fill-rule="evenodd">
        <g id="arrow-left" transform="translate(0.001476, -0.000001)" fill="#212327" fill-rule="nonzero">
            <path d="M-6.19513121e-16,7.99977056 C-6.19513121e-16,8.19450056 0.12048106,8.45325056 0.24276306,8.57896056 L7.13432406,15.7372006 C7.45611406,16.0624006 7.97740406,16.1000006 8.35237406,15.7701006 C8.68768406,15.4749006 8.69610406,14.8996006 8.38602406,14.5791006 L2.85404406,8.84209056 L18.5980241,8.84209056 C19.0740241,8.84209056 19.4594241,8.46497056 19.4594241,8.00004056 C19.4594241,7.53481056 19.0737241,7.15800056 18.5980241,7.15800056 L2.85404406,7.15800056 L8.38602406,1.42096056 C8.69609406,1.10053056 8.67416406,0.539216563 8.35237406,0.230262563 C8.01286406,-0.0960443369 7.45099406,-0.0669686369 7.13432406,0.263158563 L0.24276306,7.42112056 C0.04025846,7.61526056 0.00329972,7.80235056 -6.19513121e-16,8.00002056 L-6.19513121e-16,7.99977056 Z" id="Path"></path>
        </g>
    </g>
</svg>