<svg width="96" height="46" viewBox="0 0 96 46" fill="none" xmlns="http://www.w3.org/2000/svg">
<path d="M6.61089 37.9489L6.381 38.4395C6.36013 38.4568 6.33844 38.4731 6.31603 38.4881C6.3045 38.4949 6.2917 38.4989 6.27855 38.4998C4.27954 38.504 2.28276 38.5076 0.28819 38.5106C0.209063 38.5106 0.129935 38.5016 0.050808 38.4944C0.0399801 38.4944 0.0299851 38.4809 0 38.4602C0.0358156 38.2639 0.183242 38.1253 0.260704 37.9489C0.343996 37.7545 0.503084 37.66 0.672167 37.5645C1.69166 36.9894 2.29969 36.0623 2.57206 34.875C2.65542 34.4826 2.7056 34.0828 2.72198 33.6806C2.80861 32.1294 2.88579 30.5779 2.95354 29.0261C3.00101 27.9198 3.031 26.8127 3.05765 25.7056C3.08748 24.5889 2.79936 23.4892 2.23223 22.5552C2.2114 22.5192 2.19058 22.4823 2.17059 22.4445C2.16205 22.4241 2.15509 22.403 2.14977 22.3814C2.24927 22.0736 2.37794 21.7777 2.53374 21.4984H9.14796C9.34411 21.7643 9.52733 22.041 9.69686 22.3274C9.74207 22.4142 9.76533 22.5123 9.76432 22.6119C9.80046 23.389 9.96992 24.152 10.2641 24.8622C10.6271 25.7756 11.1065 26.6296 11.6884 27.3996C11.7375 27.4653 11.795 27.5238 11.8491 27.585C11.9666 27.5508 11.9874 27.4455 12.029 27.3636C12.4039 26.6004 12.6672 25.779 12.8095 24.9288C12.9454 24.1511 13.0176 23.3619 13.0252 22.5705C13.0252 22.4805 13.0319 22.3986 13.036 22.3004C13.3267 22.0304 13.6541 21.8063 13.9631 21.5588C14.0542 21.498 14.1617 21.4726 14.2679 21.4867H15.2674H20.3799H20.7964L21.3261 22.4634C21.3084 22.5333 21.2869 22.6022 21.262 22.6695C20.8638 23.5939 20.6731 24.5768 20.5673 25.5805C20.4007 27.1439 20.4299 28.7101 20.5381 30.2772C20.7178 32.7293 21.0656 35.1636 21.5785 37.56C21.5993 37.6582 21.6168 37.7572 21.6343 37.8562C21.6365 37.8903 21.6365 37.9246 21.6343 37.9588C21.5 38.1306 21.3492 38.2866 21.1845 38.4242C21.1324 38.4669 21.0705 38.4933 21.0054 38.5007C20.9126 38.5088 20.8194 38.5106 20.7264 38.5061H13.4C13.2834 38.1982 13.1724 37.9081 13.0669 37.6357C13.2476 37.0056 13.4308 36.407 13.5924 35.8003C14.0348 34.1706 14.3244 32.497 14.457 30.8047C14.5961 28.9469 14.5503 27.0962 14.1621 25.2699C14.1147 25.0458 14.0539 24.8253 13.9956 24.6038C13.9793 24.5704 13.9582 24.54 13.9331 24.5138C13.8323 24.5417 13.8548 24.6281 13.8456 24.6893C13.3157 28.1989 12.3668 31.6193 11.0229 34.8651C10.6458 35.786 10.2254 36.6855 9.76349 37.56C9.69103 37.696 9.61357 37.8301 9.53194 37.9741C9.21333 37.8924 8.90092 37.7847 8.5974 37.6519C8.57075 37.5303 8.53577 37.4079 8.51411 37.2828C8.10265 34.2134 7.12313 31.3574 5.73299 28.6561C5.33289 27.8759 4.89155 27.1213 4.41115 26.396C4.33702 26.2852 4.28121 26.1502 4.1671 26.0863C4.08381 26.1268 4.10297 26.1925 4.10297 26.2438C4.10796 28.8191 4.11129 31.3943 4.12545 33.9695C4.12689 34.3288 4.1598 34.6871 4.22374 35.0397C4.34822 35.6624 4.62789 36.2363 5.0325 36.6995C5.38242 37.116 5.79463 37.4659 6.2519 37.7347L6.61089 37.9489Z" fill="white"/>
<path d="M59.8833 19.4767C60.372 18.5472 60.7045 17.5315 60.8654 16.4766C61.0005 15.6398 61.0527 14.7898 61.0211 13.941C60.9495 11.9608 60.4781 10.0822 59.7642 8.27031L59.5977 7.85266L60.3556 6.46289C60.6538 6.5115 60.9387 6.5619 61.2277 6.60601C62.6045 6.81483 63.9846 6.88954 65.369 6.71762C65.7521 6.67082 66.1319 6.59071 66.5142 6.5376C67.7003 6.37018 68.8781 6.40798 70.04 6.73832C70.7004 6.91494 71.3287 7.20975 71.8991 7.61053C73.1268 8.49714 73.8298 9.7258 73.9472 11.3262C74.0613 12.8699 73.5974 14.1841 72.5712 15.2624C72.1896 15.6675 71.7272 15.9727 71.2194 16.1544C71.1444 16.1805 71.0728 16.2174 70.9787 16.2588C71.026 16.2965 71.0755 16.3307 71.1269 16.3614C71.6017 16.5919 71.9074 16.9915 72.1214 17.4938C72.3088 17.9553 72.4331 18.4437 72.4904 18.9438C72.6104 19.8179 72.5737 20.6946 72.5629 21.5722C72.5537 22.2923 72.5504 23.0124 72.5754 23.7324C72.5994 24.3947 72.7059 25.0505 72.8919 25.6821C73.0029 26.0823 73.1716 26.4611 73.3916 26.8045C73.7469 27.3433 74.2767 27.7179 74.8758 27.8538C75.4748 27.9897 76.0993 27.877 76.625 27.5381C76.8064 27.4181 76.9707 27.2704 77.1131 27.0998C77.5038 26.6299 77.5587 26.0574 77.2797 25.5003C77.2001 25.3508 77.1127 25.2063 77.0182 25.0673C76.7783 24.7023 76.6084 24.2892 76.5184 23.8522C76.4496 23.5135 76.4473 23.163 76.5118 22.8233C76.7325 21.7036 77.5896 21.0087 78.7023 21.0339C79.3903 21.0501 79.9267 21.3795 80.3399 21.9592C80.6521 22.4098 80.8606 22.9344 80.9479 23.4894C81.3011 25.5066 80.698 28.4778 77.8544 29.7992C76.1236 30.603 74.3645 30.6237 72.607 29.8784C71.6161 29.4665 70.7826 28.7054 70.2415 27.7181C69.7114 26.7509 69.3358 25.6941 69.1304 24.592C68.9687 23.7322 68.8574 22.8622 68.7973 21.9871C68.7265 21.087 68.6582 20.1806 68.5615 19.2805C68.5114 18.8675 68.4315 18.4594 68.3225 18.0599C68.2528 17.8123 68.1549 17.5749 68.031 17.3533C67.922 17.1459 67.7739 16.9656 67.5962 16.824C67.4186 16.6824 67.2154 16.5828 66.9998 16.5315C66.9223 16.5117 66.8439 16.4963 66.7649 16.4856C66.5834 16.4622 66.4009 16.4424 66.1902 16.4181C66.1344 17.465 66.0711 18.4821 66.4543 19.4956L66.0661 20.3273C65.967 20.3381 65.8762 20.3561 65.7863 20.3561C64.1621 20.3561 62.5379 20.3561 60.9128 20.3561C60.8275 20.3641 60.7415 20.3499 60.6623 20.3146C60.583 20.2794 60.5127 20.2242 60.4572 20.1536C60.2848 19.9277 60.0882 19.717 59.8833 19.4767ZM66.1361 7.92557C66.047 8.08759 66.0861 8.24871 66.0894 8.40263C66.1228 10.0708 66.1586 11.739 66.1969 13.4073C66.1969 13.4649 66.2027 13.5225 66.201 13.5792C66.1958 13.6733 66.2107 13.7674 66.2445 13.8544C66.2783 13.9413 66.3301 14.0187 66.396 14.0805C66.5413 14.2267 66.7014 14.3547 66.8732 14.4622C67.1831 14.6422 67.5262 14.6881 67.8777 14.6917C68.729 14.6998 69.6985 14.1571 69.9425 12.8519C70.0308 12.342 70.0308 11.8189 69.9425 11.3091C69.8724 10.7947 69.7027 10.3021 69.4443 9.86341C69.1859 9.42477 68.8448 9.04999 68.4433 8.76358C67.8411 8.33392 67.1585 8.0533 66.4443 7.94177C66.3419 7.92977 66.239 7.92436 66.1361 7.92557Z" fill="white"/>
<path d="M10.8165 11.7853C11.0022 11.5297 11.168 11.3047 11.3287 11.076C11.3614 11.0218 11.4063 10.9773 11.4591 10.9468C11.512 10.9162 11.5711 10.9006 11.6311 10.9014C11.6844 10.9014 11.7377 10.896 11.791 10.8942C13.3735 10.8342 14.9561 10.7742 16.5386 10.7142C16.711 10.707 16.8843 10.7142 17.0809 10.7142C17.2894 10.9502 17.4787 11.2052 17.6464 11.4766C17.5681 11.8411 17.4898 12.2039 17.4132 12.5675C17.1315 13.8706 16.9661 15.1998 16.9193 16.537C16.8838 17.328 16.9431 18.1207 17.0958 18.8953C17.1342 19.0753 17.1267 19.2211 16.9976 19.3688C16.7877 19.6091 16.6019 19.8737 16.4037 20.1258C16.3641 20.1682 16.3218 20.2076 16.2771 20.2437C16.1838 20.1456 16.098 20.0574 16.0131 19.9673C15.7472 19.6829 15.4455 19.4404 15.1168 19.2473C14.785 19.0462 14.4175 18.9235 14.0386 18.8874C13.6597 18.8512 13.278 18.9024 12.9188 19.0375C12.2374 19.2812 11.5519 19.511 10.8623 19.727C9.96623 20.008 9.04463 20.183 8.11364 20.2491C7.355 20.3049 6.59308 20.2224 5.85975 20.0051C5.047 19.7616 4.30289 19.3039 3.69416 18.673C2.40291 17.3632 1.52038 15.6521 1.16875 13.7764C0.671711 11.3242 0.917588 8.76426 1.87006 6.47466C2.96119 3.80222 5.39332 1.68426 8.02868 1.05688C9.11147 0.79855 10.1943 0.830054 11.2771 1.05688C12.3474 1.28101 13.4227 1.47993 14.4988 1.66626C14.8286 1.71087 15.1611 1.72713 15.4933 1.71486C15.7609 1.7069 16.0224 1.62742 16.2546 1.48353C16.3595 1.42323 16.4612 1.35842 16.5878 1.28191L17.1708 1.80667C17.2071 1.83923 17.2355 1.88081 17.2536 1.92784C17.2718 1.97487 17.2791 2.02595 17.2749 2.07671C17.2749 2.11991 17.2749 2.16672 17.2749 2.20632C17.3049 4.01795 17.3349 5.83018 17.3649 7.643C17.3649 7.77172 17.3649 7.89953 17.3649 8.03815C17.1392 8.08136 16.9667 7.96434 16.7652 7.90763C16.7035 7.77262 16.6386 7.6322 16.5769 7.49089C16.0347 6.24963 15.3875 5.08038 14.5554 4.03805C14.1604 3.53109 13.7037 3.08418 13.1978 2.70949C12.76 2.37911 12.2638 2.15018 11.7402 2.0371C11.3282 1.94473 10.9025 1.95017 10.4926 2.05305C10.0828 2.15594 9.69849 2.35381 9.36635 2.63298C8.98779 2.95289 8.66752 3.34601 8.42182 3.79232C8.02516 4.5095 7.73009 5.28681 7.54642 6.09841C7.33886 6.97633 7.19736 7.87096 7.12329 8.77355C7.04893 9.63309 7.03028 10.4972 7.06749 11.3596C7.11663 12.6134 7.26989 13.8511 7.61472 15.0545C7.76706 15.6062 7.97809 16.1369 8.24357 16.636C8.41797 16.9756 8.63741 17.2859 8.89491 17.5568C9.05036 17.7134 9.21751 17.8558 9.39467 17.9826C10.061 18.4461 10.7623 18.5029 11.482 18.1302C12.3215 17.6937 12.8896 17.0105 13.0853 16.0068C13.183 15.4807 13.1343 14.9351 12.9454 14.4388C12.7091 13.7649 12.3602 13.1437 11.9159 12.6062C11.6452 12.2831 11.3395 12.0094 10.9464 11.8726C10.9005 11.8483 10.8569 11.8191 10.8165 11.7853Z" fill="white"/>
<path d="M46.5302 19.4471L45.9139 20.1672C45.5632 20.2122 41.4236 20.223 40.7098 20.1816C40.5307 19.9502 40.3366 19.6964 40.1376 19.448C40.1037 19.404 40.0803 19.3517 40.0694 19.2957C40.0585 19.2397 40.0605 19.1817 40.0751 19.1266C40.2159 18.3219 40.3674 17.5181 40.4849 16.7089C40.669 15.4434 40.7914 14.1706 40.7631 12.8862C40.7536 12.3824 40.7009 11.8807 40.6057 11.3875C40.5506 11.0905 40.4453 10.807 40.295 10.5513C40.16 10.3191 39.9826 10.1191 39.7736 9.9635C39.208 9.55035 38.5658 9.57556 38.0319 10.0355C37.7517 10.2818 37.533 10.5999 37.3956 10.9608C37.3543 11.0814 37.3345 11.2094 37.3373 11.338C37.338 12.043 37.3783 12.7472 37.4581 13.4469C37.65 15.2773 37.9703 17.0894 38.4159 18.8674C38.4381 18.9346 38.4453 19.0065 38.4367 19.0772C38.4282 19.148 38.4042 19.2155 38.3668 19.2743C38.1785 19.5704 38.0011 19.8737 37.8279 20.1609C37.5014 20.2158 32.4839 20.2338 31.8358 20.1834C31.6251 19.8071 31.4427 19.3949 31.2361 18.9826C31.277 18.8566 31.3111 18.7342 31.3553 18.6163C31.7915 17.4715 32.0975 16.2737 32.2665 15.0491C32.5038 13.2552 32.4056 11.4919 31.8292 9.77538C31.6286 9.16497 31.3571 8.58455 31.0213 8.04806C30.9838 7.98956 30.9521 7.92655 30.9038 7.84104C31.1237 7.34418 31.3561 6.85091 31.5968 6.37475C31.9208 6.32345 36.9958 6.31175 37.4755 6.36035C37.6377 6.68236 37.777 7.01728 37.892 7.36218C37.9081 7.45938 37.8974 7.55955 37.8612 7.65022C37.7837 7.92475 37.6946 8.19568 37.6113 8.46932C37.5961 8.54748 37.585 8.62652 37.578 8.70605C37.6796 8.58633 37.7446 8.52602 37.7954 8.44861C38.0335 8.10181 38.3058 7.784 38.6075 7.5008C39.637 6.54668 40.8414 6.14253 42.189 6.17943C42.9225 6.18799 43.6435 6.38547 44.2922 6.7555C45.1301 7.24516 45.7023 7.96886 45.9197 8.98688C45.9962 9.36712 46.0198 9.75757 45.9897 10.1453C45.8922 11.6233 45.8056 13.1031 45.8231 14.5856C45.8339 15.6504 45.8722 16.7134 46.0271 17.7684C46.1104 18.3489 46.227 18.9214 46.5302 19.4471Z" fill="white"/>
<path d="M36.0063 34.839C35.9172 34.7328 35.8356 34.641 35.7565 34.5447C34.4704 32.938 34.1064 31.1125 34.7778 29.1188C35.3433 27.4392 36.5336 26.4896 38.1428 26.1601C39.1939 25.9459 40.2076 26.1304 41.1846 26.5859L41.417 26.693C41.5111 26.6093 41.6027 26.5301 41.6918 26.4482C42.2052 25.965 42.7952 25.5862 43.4335 25.3302C44.1265 25.0602 44.8328 24.9873 45.5499 25.2114C45.963 25.3341 46.3437 25.5594 46.6619 25.8694C47.2041 26.4095 47.3932 27.1997 47.1433 27.9171C46.9767 28.4005 46.6802 28.756 46.1946 28.8767C45.9994 28.9281 45.7957 28.9283 45.6004 28.8775C45.4051 28.8266 45.2239 28.726 45.0718 28.5841C44.9338 28.4688 44.8291 28.3132 44.7701 28.1357C44.711 27.9582 44.7001 27.7662 44.7387 27.5823C44.7805 27.4014 44.8325 27.2235 44.8944 27.0494C44.986 26.7443 44.8944 26.5355 44.6037 26.4626C44.4361 26.4202 44.2621 26.4168 44.0931 26.4527C43.8858 26.5032 43.6865 26.5866 43.5018 26.7002C43.1711 26.9066 42.8778 27.1762 42.6364 27.4959C42.6988 27.5517 42.7513 27.6075 42.8113 27.6525C44.4771 28.9028 45.1143 30.6355 44.8728 32.7777C44.672 34.5555 43.4501 36.2882 41.3653 36.7517C40.2392 37.002 39.1698 36.7886 38.1528 36.2261C38.0362 36.1613 37.9204 36.0947 37.7854 36.0173C37.727 36.1147 37.6886 36.2247 37.673 36.3396C37.6573 36.4545 37.6647 36.5718 37.6947 36.6833C37.7243 36.7869 37.7735 36.8827 37.8392 36.9646C37.9049 37.0466 37.9855 37.1129 38.0761 37.1595C38.3134 37.2917 38.5735 37.3693 38.8399 37.3872C39.4916 37.4348 40.1463 37.39 40.7873 37.254C41.5861 37.0829 42.4094 37.097 43.2028 37.2954C43.3185 37.326 43.4343 37.3602 43.5484 37.3989C45.0094 37.8949 45.5807 39.3117 45.5199 40.5412C45.477 41.3522 45.1947 42.127 44.7145 42.7519C44.2184 43.4162 43.5812 43.9411 42.8571 44.2821C42.111 44.6298 41.3239 44.8643 40.5183 44.9788C39.5835 45.1369 38.6339 45.1672 37.6922 45.0688C37.0424 45.006 36.4013 44.8635 35.7814 44.6439C35.4647 44.5321 35.165 44.3704 34.8919 44.1642C34.6433 43.9808 34.4378 43.7372 34.2919 43.4528C34.146 43.1683 34.0636 42.8509 34.0515 42.526C34.044 42.3963 34.044 42.2667 34.0448 42.1371C34.0448 41.5727 34.2888 41.147 34.7153 40.8391C34.9548 40.668 35.2237 40.5506 35.506 40.494C35.7883 40.4374 36.0783 40.4428 36.3586 40.5097C36.5236 40.5398 36.6804 40.6088 36.8179 40.7118C36.9554 40.8147 37.0701 40.9492 37.1541 41.1056C37.7238 42.129 38.5917 42.6025 39.6712 42.6691C40.2174 42.7196 40.7669 42.627 41.2729 42.399C41.4801 42.3004 41.6758 42.1757 41.8559 42.0273C42.3115 41.651 42.2199 40.8878 41.8026 40.57C41.5256 40.3672 41.2016 40.2525 40.8672 40.2388C40.3748 40.2022 39.8802 40.2529 39.403 40.3891C38.9028 40.544 38.3825 40.6087 37.8629 40.5808C37.1466 40.5268 36.4736 40.3216 35.8747 39.8823C35.2484 39.4233 34.8469 38.8022 34.7869 37.9687C34.7486 37.4358 34.8245 36.9005 35.0085 36.4043C35.1808 35.9343 35.4353 35.5046 35.7581 35.1387L36.0063 34.839ZM41.043 31.7552C41.018 31.5212 40.9855 31.063 40.9172 30.6103C40.8489 30.1408 40.7144 29.6855 40.5183 29.2601C40.4106 29.0123 40.2573 28.7908 40.0676 28.6093C39.958 28.5035 39.8229 28.4332 39.678 28.4064C39.533 28.3797 39.384 28.3976 39.2481 28.4581C38.9967 28.5589 38.7835 28.7469 38.6417 28.9928C38.4758 29.271 38.3568 29.5788 38.2902 29.9019C38.1141 30.7298 38.1013 31.5886 38.2527 32.4222C38.3264 32.9194 38.4723 33.4009 38.685 33.8489C38.7926 34.0807 38.9392 34.2889 39.1173 34.4628C39.5729 34.8885 40.1401 34.8318 40.5174 34.3223C40.6693 34.1041 40.7823 33.8571 40.8506 33.5941C41.0072 33.0703 41.038 32.5266 41.043 31.7543V31.7552Z" fill="white"/>
<path d="M87.1418 19.7262C87.0327 19.9656 86.9902 20.1762 86.8494 20.3562H81.009C80.8832 20.2068 80.8191 20.0187 80.7374 19.8279C80.919 19.5047 81.1389 19.1888 81.0007 18.7261C80.8874 18.8297 80.7966 18.9062 80.7125 18.9899C80.2153 19.4915 79.6574 19.9178 79.0541 20.2572C78.5252 20.5641 77.9487 20.7636 77.3533 20.8459C76.3405 20.9701 75.4559 20.6596 74.7138 19.9107C74.4395 19.6433 74.2295 19.3078 74.102 18.9332C73.9744 18.5586 73.9331 18.1561 73.9816 17.7603C74.1166 16.349 74.8029 15.2958 75.8632 14.5064C76.3255 14.1608 76.8427 13.9277 77.3708 13.7269C77.923 13.5172 78.4794 13.3237 79.0366 13.1194C79.4798 12.9664 79.9071 12.7643 80.3118 12.5163C80.6743 12.2966 80.97 11.9679 81.1631 11.5703C81.3024 11.2906 81.3847 10.982 81.4044 10.6651C81.4241 10.3482 81.3807 10.0304 81.2772 9.73313C81.2168 9.55824 81.1344 9.39317 81.0323 9.24257C80.6858 8.7232 80.1561 8.54498 79.5422 8.78441C79.0833 8.96443 78.8351 9.32448 78.8017 9.85284C78.7716 10.1551 78.8216 10.4604 78.9458 10.7332C78.967 10.7859 78.9909 10.8373 79.0175 10.8871C79.4972 11.6378 78.9342 12.8934 78.0346 13.1167C76.8844 13.402 75.4226 12.528 75.3759 10.9411C75.3393 9.67282 75.8166 8.61969 76.7036 7.79069C77.3 7.23442 78.003 6.89957 78.7643 6.70515C80.3251 6.3064 81.8577 6.39821 83.3453 7.07239C84.9562 7.80419 85.9174 9.11565 86.2072 10.978C86.2654 11.3907 86.2841 11.8087 86.263 12.2255C86.2306 13.1455 86.1714 14.0636 86.1164 14.9826C86.0673 15.8017 86.0248 16.6208 86.0815 17.4399C86.1065 17.7692 86.1624 18.0949 86.248 18.412C86.3661 18.9048 86.6409 19.3369 87.0243 19.6326C87.0476 19.6596 87.081 19.683 87.1418 19.7262ZM81.2547 13.8259C81.1847 13.8655 81.1531 13.8718 81.1422 13.8916C80.8974 14.3147 80.5267 14.5523 80.1111 14.7306C79.9004 14.817 79.6938 14.915 79.4922 15.024C79.0736 15.2569 78.7559 15.6575 78.6068 16.1401C78.4861 16.5002 78.5086 16.844 78.7393 17.1546C79.1491 17.7036 80.2385 17.9818 80.8549 17.1951C81.0607 16.9307 81.2075 16.6187 81.2838 16.2832C81.4704 15.4731 81.4138 14.6657 81.2514 13.8259H81.2547Z" fill="white"/>
<path d="M95.6607 19.2357L94.9893 20.3527C94.4513 20.3806 93.9065 20.3617 93.3651 20.3653C92.8237 20.3689 92.274 20.3653 91.7285 20.3653C91.1829 20.3653 90.6365 20.3653 90.0909 20.3653C89.5454 20.3653 89.0023 20.3698 88.4418 20.3653C88.2477 19.971 88.0619 19.5912 87.8737 19.2132C87.8541 19.1679 87.844 19.1186 87.844 19.0687C87.844 19.0188 87.8541 18.9694 87.8737 18.9242C88.0053 18.4868 88.1369 18.0493 88.2552 17.6082C89.039 14.6557 89.2976 11.5693 89.0173 8.51261C88.8241 6.50176 88.4343 4.53952 87.7188 2.66188C87.7038 2.62228 87.6921 2.58178 87.668 2.50617L88.3868 0.981377C89.4804 0.970575 90.5524 1.01648 91.631 1.02098C92.7096 1.02548 93.7833 1.03988 94.8686 1.04978C95.0576 1.41793 95.1834 1.79598 95.33 2.15422C95.1926 2.71949 95.0485 3.27216 94.9244 3.82933C94.6307 5.18809 94.4451 6.5715 94.3697 7.96445C94.3104 8.89732 94.2948 9.83283 94.323 10.7674C94.413 13.5397 94.7919 16.2581 95.5724 18.9116C95.5965 18.9971 95.6215 19.0961 95.6607 19.2357Z" fill="white"/>
<path d="M23.2936 13.0167C23.2591 13.3339 23.2533 13.6541 23.2761 13.9726C23.3042 14.6062 23.4397 15.2289 23.6759 15.8097C23.8609 16.2907 24.1554 16.7134 24.5322 17.0384C25.2635 17.6414 26.0681 17.7918 26.9393 17.4461C27.217 17.3374 27.463 17.151 27.6523 16.9061C27.773 16.761 27.857 16.5846 27.896 16.394C27.9349 16.2035 27.9276 16.0053 27.8747 15.8187C27.8112 15.5999 27.7707 15.374 27.7539 15.1454C27.7189 14.2093 28.4269 13.5009 29.3148 13.6881C30.1352 13.8601 30.6558 14.4982 30.6874 15.438C30.7001 15.8137 30.6396 16.1881 30.51 16.537C29.7779 18.5353 28.4477 19.79 26.4879 20.196C24.528 20.6019 22.0817 19.8647 20.5275 18.294C19.523 17.2814 18.915 16.0266 18.6176 14.5865C18.0487 11.8204 19.1298 8.87075 21.2638 7.31985C22.8388 6.17491 24.563 5.84367 26.4062 6.38014C27.2452 6.63123 28.0091 7.11426 28.6226 7.78161C29.5039 8.70963 30.1011 9.81047 30.3368 11.1246C30.3731 11.3656 30.389 11.6096 30.3843 11.8537C30.3798 11.9825 30.359 12.11 30.3226 12.2327C30.272 12.4442 30.1574 12.6314 29.9969 12.7644C29.8365 12.8973 29.6394 12.9684 29.4372 12.9663C28.7451 12.9663 28.0529 12.9798 27.3599 12.9852L23.8458 13.005C23.6734 13.0014 23.5068 13.0104 23.2936 13.0167ZM26.1131 11.9077C26.1287 11.8488 26.1398 11.7886 26.1464 11.7277C26.1803 11.0523 26.1282 10.3751 25.9914 9.71505C25.9291 9.4056 25.8256 9.10756 25.6841 8.83024C25.5781 8.61313 25.427 8.42551 25.2426 8.28207C24.7271 7.90223 24.0766 7.91663 23.7067 8.62502C23.5857 8.86424 23.4936 9.11926 23.4327 9.38381C23.2386 10.1849 23.2245 11.004 23.2811 11.824C23.2811 11.8474 23.3103 11.869 23.3444 11.9185C24.1882 11.9257 25.0511 11.9338 25.914 11.9383C25.981 11.934 26.0476 11.9238 26.1131 11.9077Z" fill="white"/>
<path d="M52.0078 13.051C51.991 13.119 51.9787 13.1882 51.9711 13.2581C51.9333 14.0362 52.0395 14.8147 52.2835 15.5479C52.4507 16.0827 52.7424 16.5619 53.1305 16.9395C53.816 17.5804 54.6023 17.773 55.476 17.5147C55.7473 17.4349 55.9971 17.2864 56.2048 17.0817C56.5705 16.7217 56.7263 16.2923 56.563 15.7622C56.451 15.4371 56.4273 15.0842 56.4947 14.745C56.6563 14.0142 57.231 13.5749 57.9207 13.6748C58.8127 13.8008 59.3691 14.4804 59.3899 15.4606C59.3977 15.8791 59.3219 16.2946 59.1675 16.6785C58.4063 18.6263 57.0736 19.8343 55.137 20.2087C53.0339 20.6165 50.2994 19.7488 48.7236 17.7217C47.8806 16.6501 47.3579 15.3277 47.2243 13.9286C46.9836 11.5172 47.7082 9.47849 49.3541 7.83939C50.3119 6.88617 51.463 6.3632 52.7574 6.19038C53.6447 6.06115 54.5476 6.15888 55.3936 6.47572C56.2635 6.81015 57.0384 7.38265 57.6425 8.13732C58.3263 8.95169 58.8022 9.94434 59.0234 11.0177C59.0958 11.3552 59.1102 11.7042 59.0659 12.0474C59.0151 12.4075 58.8585 12.6955 58.5454 12.8656C58.3994 12.9373 58.2399 12.9709 58.0798 12.9637C57.4542 12.97 56.8304 12.9781 56.2032 12.9817C55.0046 12.9898 53.8069 12.9934 52.6083 13.0033C52.4159 13.0033 52.216 12.979 52.0078 13.051ZM54.8297 11.8962C54.8757 11.3868 54.8678 10.8735 54.8064 10.366C54.7678 9.9078 54.6615 9.45925 54.4915 9.03744C54.3558 8.7197 54.1817 8.43076 53.8977 8.24534C53.3021 7.85739 52.7266 8.02841 52.4242 8.61618C52.2957 8.86726 52.198 9.13534 52.1335 9.41368C51.9651 10.1995 51.9137 11.0092 51.9811 11.8125C51.9811 11.8368 52.0069 11.8602 52.0211 11.8836C52.3534 11.9439 54.474 11.9583 54.8297 11.8962Z" fill="white"/>
<path d="M33.8346 38.0245C33.7554 38.2235 33.6921 38.3846 33.6238 38.5511C33.5472 38.5685 33.4696 38.5799 33.3915 38.5853C31.7939 38.5853 30.1964 38.5853 28.5988 38.5853C28.5597 38.5853 28.5197 38.5763 28.4631 38.57C28.354 38.4548 28.304 38.291 28.2265 38.1199C28.3673 37.8391 28.5697 37.5691 28.4722 37.2198C28.359 37.1595 28.319 37.2594 28.2673 37.3098C27.7758 37.8185 27.2138 38.2409 26.6015 38.5619C26.0184 38.8643 25.4096 39.0561 24.7541 39.0192C24.3869 39.006 24.0259 38.9127 23.6928 38.7451C23.3598 38.5774 23.0615 38.3387 22.8159 38.0434C22.2845 37.4134 22.182 36.66 22.3553 35.8643C22.581 34.8228 23.1407 34.0208 23.9611 33.434C24.3306 33.1766 24.7274 32.9683 25.143 32.8138C25.6053 32.6338 26.0751 32.4726 26.539 32.2962C26.8397 32.1819 27.1437 32.073 27.4327 31.9281C27.6759 31.8118 27.9056 31.6653 28.1174 31.4915C28.4385 31.2163 28.6644 30.8323 28.7589 30.4014C28.8533 29.9704 28.8107 29.5177 28.638 29.1161C28.4831 28.7651 28.2598 28.486 27.8983 28.3816C27.4611 28.252 27.0846 28.3816 26.7631 28.7165C26.6487 28.8375 26.5739 28.9955 26.5498 29.1665C26.4789 29.5215 26.5261 29.8922 26.6831 30.2134C26.7993 30.4079 26.8631 30.6335 26.8672 30.865C26.8532 31.1468 26.7654 31.4184 26.6141 31.6484C26.4629 31.8783 26.2543 32.0571 26.0126 32.1639C25.75 32.2725 25.4654 32.3036 25.188 32.2539C24.0544 32.055 23.3464 31.0055 23.5338 29.784C23.7004 28.6733 24.2268 27.8038 25.1164 27.2079C25.6047 26.8829 26.1443 26.658 26.7081 26.5445C27.9367 26.2844 29.1469 26.3528 30.3205 26.8433C30.643 26.9771 30.952 27.1463 31.2425 27.3483C32.2787 28.0684 32.8459 29.1215 33.0275 30.4285C33.0827 30.8418 33.0972 31.2603 33.0708 31.6769C33.0166 32.6248 32.9575 33.5717 32.9042 34.5195C32.8572 35.1218 32.8679 35.7278 32.9358 36.3278C32.9771 36.6708 33.0741 37.0033 33.2224 37.3098C33.3657 37.6014 33.5767 37.8476 33.8346 38.0245ZM28.6705 32.8363C28.1599 33.4196 28.1599 33.4187 27.4627 33.7364C27.3275 33.7953 27.1957 33.8629 27.0679 33.9389C26.729 34.1475 26.4738 34.4846 26.3516 34.8849C26.2935 35.0315 26.2743 35.1926 26.296 35.3503C26.3178 35.508 26.3797 35.656 26.4749 35.7778C26.8372 36.2513 27.7609 36.4718 28.2898 35.8463C28.4954 35.5995 28.6389 35.2998 28.7063 34.9759C28.8604 34.2792 28.8196 33.5843 28.6705 32.8363Z" fill="white"/>
<path d="M63.2572 34.4178C63.7144 34.6518 64.1634 34.8588 64.6082 35.1235C64.5757 35.2243 64.5565 35.3035 64.5249 35.3809C64.3384 35.7958 64.0874 36.1731 63.7827 36.4961C62.9414 37.4084 61.8775 38.0436 60.7151 38.3279C59.6891 38.6008 58.615 38.5806 57.5983 38.2693C56.5367 37.9562 55.5964 37.2825 54.9163 36.3476C54.1532 35.3364 53.6984 34.0947 53.6145 32.7931C53.4479 30.3628 54.3116 28.4491 56.1699 27.0746C56.9195 26.5211 57.7674 26.2402 58.6686 26.1358C59.9468 25.9879 61.2374 26.24 62.3868 26.8622C62.9659 27.1586 63.4777 27.5888 63.886 28.1224C64.4091 28.7874 64.6828 29.64 64.6532 30.5122C64.6376 31.003 64.5106 31.4821 64.2833 31.9074C63.8161 32.7895 62.9507 33.0919 62.1752 32.9695C61.8298 32.909 61.5137 32.7233 61.279 32.4429C61.0192 32.1508 60.842 31.7844 60.7684 31.3871C60.7266 31.1898 60.7312 30.9843 60.7817 30.7894C60.7926 30.748 60.8076 30.7075 60.8176 30.6661C60.9841 29.9874 60.7276 29.5572 60.0838 29.4104C59.7814 29.3497 59.4696 29.378 59.1809 29.4923C58.6675 29.6695 58.2354 30.0503 57.9715 30.5581C57.7694 30.9238 57.6364 31.3292 57.58 31.7508C57.5237 32.1724 57.5452 32.6019 57.6433 33.0145C57.8097 33.7917 58.2027 34.4906 58.7644 35.0082C59.514 35.7094 60.3869 35.8931 61.3398 35.7058C61.5746 35.6548 61.8041 35.5791 62.0253 35.4799C62.5209 35.2693 62.7574 35.0568 63.2572 34.4178Z" fill="white"/>
<path d="M47.3491 27.6472L47.9013 26.477C47.9313 26.4581 47.9422 26.45 47.9538 26.4437C47.9653 26.4362 47.978 26.4313 47.9913 26.4293C48.0838 26.4248 48.177 26.4194 48.2703 26.4194L52.6598 26.4248C52.6951 26.4321 52.7295 26.4439 52.7623 26.4599C52.8572 26.6877 52.9588 26.9361 53.063 27.18C53.1179 27.3105 53.0821 27.4294 53.0363 27.5527C52.871 27.992 52.7416 28.4462 52.6498 28.91C52.5303 29.4997 52.457 30.0992 52.4308 30.7022C52.3383 32.9254 52.6806 35.0821 53.2712 37.2019C53.3128 37.3531 53.3545 37.5025 53.4069 37.6753L52.8697 38.5691H47.9713C47.7639 38.2991 47.6381 37.9625 47.4974 37.6438C47.4574 37.5538 47.4899 37.4197 47.514 37.3126C47.6165 36.8625 47.7414 36.426 47.833 35.9777C48.1586 34.3594 48.2371 32.6944 48.0654 31.0487C47.9566 29.8874 47.716 28.745 47.3491 27.6472Z" fill="white"/>
<path d="M96.0004 35.2441C95.9737 35.3026 95.9654 35.3494 95.9379 35.3746C95.8967 35.4106 95.8503 35.4388 95.8005 35.4583C95.384 35.6383 94.9676 35.8354 94.5378 35.9885C92.6887 36.6527 91.4293 37.9687 90.7272 39.93C90.5106 40.5322 90.2591 41.1191 90.0225 41.7132C90.0069 41.7525 89.9873 41.79 89.9642 41.8248C89.9509 41.8405 89.9345 41.853 89.9163 41.8612C89.898 41.8694 89.8783 41.8732 89.8586 41.8724C89.8388 41.8715 89.8195 41.866 89.8019 41.8562C89.7843 41.8464 89.7689 41.8326 89.7568 41.8158C89.7192 41.7396 89.6855 41.6611 89.656 41.5808C89.4062 40.9454 89.1746 40.3027 88.9064 39.6762C88.1568 37.8877 86.9457 36.6212 85.1974 36.0064C84.7152 35.8372 84.2654 35.5888 83.7998 35.3764C83.7621 35.3627 83.7302 35.3349 83.7098 35.2981C83.6959 35.2469 83.6979 35.1922 83.7156 35.1423C83.7363 35.1054 83.769 35.0782 83.8073 35.0658C84.1203 34.9079 84.4445 34.7773 84.7768 34.6752C86.018 34.3623 87.1299 33.6179 87.9419 32.5563C88.3652 32.0004 88.7027 31.3743 88.9414 30.7021C89.1721 30.072 89.4261 29.4572 89.671 28.8362C89.6866 28.7967 89.7053 28.7588 89.7268 28.7227C89.7383 28.7053 89.7535 28.691 89.7711 28.6812C89.7887 28.6714 89.8082 28.6663 89.828 28.6663C89.8478 28.6663 89.8674 28.6714 89.885 28.6812C89.9026 28.691 89.9178 28.7053 89.9292 28.7227C89.965 28.7829 89.9962 28.8461 90.0225 28.9118C90.2832 29.5571 90.5464 30.2016 90.8013 30.8497C91.5509 32.7525 92.8353 34.0136 94.6677 34.6086C95.0716 34.7517 95.4671 34.9209 95.8521 35.1153C95.9073 35.1498 95.9573 35.1932 96.0004 35.2441Z" fill="white"/>
<path d="M81.9366 26.828C81.9909 26.9026 82.0397 26.9818 82.0824 27.0647C82.249 27.4572 82.4097 27.8505 82.563 28.2475C83.0477 29.5076 83.884 30.3438 85.0926 30.7426C85.3933 30.8306 85.6814 30.963 85.9488 31.1359C85.9588 31.2593 85.883 31.2845 85.8297 31.3088C85.5848 31.4195 85.3408 31.5356 85.0892 31.6229C83.8282 32.0622 82.9678 32.9443 82.5072 34.289C82.3831 34.6491 82.2248 35.001 82.0791 35.3557C82.0473 35.4115 82.0111 35.4642 81.9708 35.5132C81.922 35.4587 81.8792 35.3983 81.8433 35.3332C81.6876 34.9524 81.5368 34.569 81.3869 34.1855C80.908 32.9551 80.1109 32.0874 78.9248 31.6652C78.5895 31.5446 78.2648 31.3922 77.9544 31.2097C77.9477 31.1914 77.9449 31.1718 77.9461 31.1521C77.9472 31.1325 77.9524 31.1133 77.9613 31.0961C77.9701 31.0789 77.9824 31.064 77.9972 31.0525C78.012 31.0411 78.029 31.0333 78.0469 31.0297C78.2968 30.9298 78.5466 30.8245 78.7965 30.7462C79.4646 30.5425 80.0691 30.1468 80.5456 29.6012C80.893 29.2026 81.1659 28.7353 81.3494 28.225C81.4927 27.8388 81.6476 27.4572 81.8 27.0746C81.8342 27.0026 81.8792 26.9351 81.9366 26.828Z" fill="white"/>
<path d="M80.312 35.5879C80.3887 35.7274 80.4337 35.7949 80.4645 35.8687C80.5836 36.1577 80.6985 36.4484 80.8143 36.7382C81.1824 37.6626 81.803 38.2891 82.6917 38.6006C82.9584 38.6761 83.2128 38.7951 83.4463 38.9534C83.3954 39.0039 83.3395 39.0483 83.2797 39.0857C83.0707 39.1757 82.8633 39.2658 82.6467 39.3477C82.2212 39.4975 81.8327 39.7498 81.5105 40.0855C81.1884 40.4212 80.9409 40.8315 80.7868 41.2856C80.6852 41.5664 80.5703 41.8419 80.4536 42.1182C80.4167 42.1898 80.3747 42.2581 80.3279 42.3225C80.2762 42.2262 80.2396 42.1713 80.2146 42.1101C80.108 41.8473 80.0022 41.5835 79.8997 41.318C79.5266 40.3513 78.9044 39.6699 77.9732 39.3333C77.6993 39.246 77.4382 39.1172 77.1978 38.9507C77.3277 38.7941 77.4876 38.7617 77.6292 38.7005C77.7267 38.6582 77.8341 38.6411 77.9357 38.6105C78.3587 38.4761 78.7484 38.2407 79.0758 37.9216C79.4032 37.6025 79.6601 37.2079 79.8273 36.767C79.9397 36.4907 80.043 36.2099 80.1538 35.9326C80.1896 35.8381 80.2354 35.7517 80.312 35.5879Z" fill="white"/>
<path d="M52.7661 21.4985C52.5824 21.7494 52.3696 21.9739 52.1331 22.1664C51.6191 22.6117 51.2633 23.2352 51.1261 23.9315C51.0836 24.1993 51.0585 24.47 51.0511 24.7416C51.0286 25.0836 51.017 25.4257 50.9978 25.8163C50.9293 25.7856 50.8642 25.7467 50.8037 25.7002C50.6055 25.4878 50.4106 25.27 50.2207 25.0512C49.5485 24.2906 48.7356 23.9081 47.7561 23.9711C47.4796 23.9889 47.2022 23.968 46.9307 23.909C46.959 23.8417 46.9945 23.7783 47.0364 23.72C47.1408 23.6089 47.2521 23.5057 47.3696 23.4112C48.22 22.7488 48.634 21.8459 48.6581 20.7217C48.6656 20.3617 48.6781 20.007 48.6881 19.6695C48.702 19.6558 48.7185 19.6456 48.7364 19.6394C48.7544 19.6333 48.7733 19.6314 48.7919 19.6339C48.8106 19.6363 48.8285 19.6431 48.8446 19.6538C48.8606 19.6644 48.8742 19.6787 48.8847 19.6956C49.1004 19.9305 49.3211 20.16 49.5319 20.4004C50.2174 21.1808 51.052 21.53 52.0465 21.44C52.219 21.4287 52.392 21.4287 52.5645 21.44C52.6332 21.4531 52.7006 21.4726 52.7661 21.4985Z" fill="white"/>
</svg>
