<svg width="25" height="36" viewBox="0 0 25 36" fill="none" xmlns="http://www.w3.org/2000/svg">
<path d="M22.3214 4.46426H17.8571V2.67871C17.8571 1.20144 16.6557 0 15.1784 0H9.82137C8.3441 0 7.14265 1.20136 7.14265 2.67871V4.46426H2.67871C1.20144 4.46426 0 5.66562 0 7.14297V9.82169C0 10.3146 0.400148 10.7145 0.892771 10.7145V31.2501C0.892771 33.7117 2.89539 35.7143 5.35703 35.7143H19.6427C22.1043 35.7143 24.1069 33.7117 24.1069 31.2501L24.1072 10.7137C24.6002 10.7137 25 10.3135 25 9.82089V7.14218C25 5.66522 23.7986 4.46378 22.3213 4.46378L22.3214 4.46426ZM8.9286 2.67871C8.9286 2.18639 9.32905 1.78594 9.82137 1.78594H15.1784C15.6707 1.78594 16.0712 2.1864 16.0712 2.67871V4.46426H8.92852L8.9286 2.67871ZM1.78594 7.14297C1.78594 6.65065 2.1864 6.2502 2.67871 6.2502H22.3215C22.8138 6.2502 23.2142 6.65066 23.2142 7.14297V8.92852H1.78578L1.78594 7.14297ZM22.3215 31.25C22.3215 32.7272 21.1202 33.9287 19.6428 33.9287H5.35719C3.87992 33.9287 2.67848 32.7273 2.67848 31.25L2.67879 10.7144H22.3215L22.3215 31.25ZM6.2502 29.4644V15.1788C6.2502 14.6859 6.65035 14.286 7.14297 14.286C7.63592 14.286 8.03574 14.6862 8.03574 15.1788V29.4644C8.03574 29.9574 7.6356 30.3572 7.14297 30.3572C6.65002 30.3575 6.2502 29.9574 6.2502 29.4647V29.4644ZM16.9644 29.4644V15.1788C16.9644 14.6859 17.3646 14.286 17.8572 14.286C18.3501 14.286 18.75 14.6862 18.75 15.1788V29.4644C18.75 29.9574 18.3498 30.3572 17.8572 30.3572C17.3646 30.3575 16.9644 29.9574 16.9644 29.4647V29.4644ZM11.6074 29.4644V15.1788C11.6074 14.6859 12.0075 14.286 12.5002 14.286C12.9931 14.286 13.3929 14.6862 13.3929 15.1788V29.4644C13.3929 29.9574 12.9928 30.3572 12.5002 30.3572C12.0072 30.3575 11.6074 29.9574 11.6074 29.4647V29.4644Z" fill="#ADB6CC"/>
</svg>
