<svg width="22" height="18" viewBox="0 0 22 18" fill="none" xmlns="http://www.w3.org/2000/svg">
<path fill-rule="evenodd" clip-rule="evenodd" d="M6.92 17.94C10.3319 17.9614 13.6103 16.6155 16.0229 14.2029C18.4356 11.7903 19.7815 8.51188 19.76 5.09997C19.76 4.89997 19.76 4.70997 19.76 4.50997C20.6356 3.86846 21.3935 3.08014 22 2.17997C21.1755 2.54057 20.3031 2.77972 19.41 2.88997C20.3569 2.32575 21.0674 1.43764 21.41 0.389972C20.5275 0.919413 19.5598 1.29161 18.55 1.48997C17.1518 0.000196576 14.9282 -0.366443 13.1257 0.595626C11.3233 1.55769 10.3904 3.60924 10.85 5.59997C7.2218 5.42188 3.84048 3.70941 1.55 0.889972C0.364961 2.94675 0.977064 5.57005 2.95 6.88997C2.24861 6.86292 1.56345 6.67108 0.95 6.32997V6.37997C0.937157 8.51442 2.41605 10.3682 4.5 10.83C3.84764 11.0054 3.16429 11.0328 2.5 10.91C3.09994 12.7201 4.77352 13.9573 6.68 14C5.08921 15.2805 3.11209 15.9854 1.07 16C0.711953 15.9896 0.354747 15.9596 0 15.91C2.06696 17.2269 4.4692 17.9212 6.92 17.91" fill="#FBFCFC"/>
</svg>
