<svg width="24" height="25" viewBox="0 0 24 25" fill="none" xmlns="http://www.w3.org/2000/svg">
<path d="M5.84375 22.0605C5.84375 22.7739 6.13727 23.458 6.66003 23.9624C7.18278 24.4668 7.89166 24.7502 8.63102 24.7502C9.37018 24.7502 10.0793 24.4668 10.602 23.9624C11.1246 23.458 11.4183 22.7739 11.4183 22.0605C11.4183 21.3473 11.1246 20.6633 10.602 20.1589C10.0793 19.6545 9.37018 19.3711 8.63102 19.3711C7.89186 19.3719 7.18338 19.6555 6.66084 20.1597C6.13829 20.6639 5.84436 21.3475 5.84375 22.0605ZM9.71708 22.0605C9.71708 22.3386 9.60256 22.605 9.39883 22.8016C9.19531 22.9982 8.91899 23.1085 8.63101 23.1085C8.34303 23.1085 8.06669 22.9982 7.86299 22.8016C7.65946 22.605 7.54494 22.3386 7.54494 22.0605C7.54494 21.7827 7.65946 21.5162 7.86299 21.3197C8.06671 21.1231 8.34303 21.0128 8.63101 21.0128C8.9188 21.0135 9.19452 21.124 9.39802 21.3204C9.60154 21.5168 9.71627 21.7829 9.71706 22.0605L9.71708 22.0605Z" fill="white"/>
<path d="M17.5215 22.0605C17.5215 22.7739 17.8152 23.458 18.338 23.9624C18.8607 24.4668 19.5696 24.7502 20.3088 24.7502C21.0481 24.7502 21.757 24.4668 22.2797 23.9624C22.8025 23.458 23.0962 22.7739 23.0962 22.0605C23.0962 21.3473 22.8025 20.6633 22.2797 20.1589C21.757 19.6545 21.0481 19.3711 20.3088 19.3711C19.5698 19.3719 18.8613 19.6555 18.3388 20.1597C17.8162 20.6639 17.5223 21.3475 17.5215 22.0605ZM21.3948 22.0605C21.3948 22.3386 21.2805 22.605 21.0768 22.8016C20.873 22.9982 20.5969 23.1085 20.3087 23.1085C20.0208 23.1085 19.7446 22.9982 19.5409 22.8016C19.3372 22.605 19.2229 22.3386 19.2229 22.0605C19.2229 21.7827 19.3372 21.5162 19.5409 21.3197C19.7446 21.1231 20.0208 21.0128 20.3087 21.0128C20.5967 21.0135 20.8725 21.124 21.076 21.3204C21.2795 21.5168 21.394 21.7829 21.3948 22.0605L21.3948 22.0605Z" fill="white"/>
<path d="M5.07844 18.4518H24V16.8101L6.59545 16.8102L6.41961 15.3411L22.2986 13.7296L23.6255 3.98357H5.06701L4.5935 0H0V1.6417H3.07665L5.07844 18.4518ZM21.6946 5.62528L20.7901 12.2327L6.23832 13.7101L5.27429 5.62518L21.6946 5.62528Z" fill="white"/>
</svg>
