<svg width="18" height="15" viewBox="0 0 18 15" fill="none" xmlns="http://www.w3.org/2000/svg">
<path fill-rule="evenodd" clip-rule="evenodd" d="M5.66182 14.9998C8.45338 15.0178 11.1357 13.8885 13.1097 11.8642C15.0836 9.83985 16.1848 7.0891 16.1673 4.22631C16.1673 4.0585 16.1673 3.89908 16.1673 3.73127C16.8837 3.193 17.5037 2.53156 18 1.77627C17.3254 2.07883 16.6116 2.27949 15.8809 2.372C16.6557 1.89859 17.237 1.15341 17.5173 0.274357C16.7952 0.718588 16.0035 1.03088 15.1773 1.19732C14.0333 -0.0526857 12.2139 -0.360316 10.7392 0.446913C9.26454 1.25414 8.50122 2.9755 8.87727 4.64584C5.90875 4.49641 3.14221 3.05955 1.26818 0.693885C0.298604 2.41964 0.799416 4.62073 2.41364 5.72822C1.83977 5.70552 1.27919 5.54456 0.777273 5.25835V5.3003C0.766765 7.09122 1.97677 8.64669 3.68182 9.0341C3.14807 9.18132 2.58897 9.20426 2.04545 9.10122C2.53631 10.62 3.90561 11.6581 5.46545 11.6939C4.1639 12.7683 2.54626 13.3598 0.875455 13.372C0.582507 13.3633 0.290248 13.3381 0 13.2965C1.69115 14.4015 3.65662 14.984 5.66182 14.9746" fill="#A569FF"/>
</svg>
