<svg width="32" height="32" viewBox="0 0 32 32" fill="none" xmlns="http://www.w3.org/2000/svg">
<path d="M26.4335 6.91024C24.4777 6.01576 22.4007 5.36385 20.2327 5C19.9598 5.46998 19.6566 6.10672 19.4444 6.60703C17.1385 6.27349 14.8492 6.27349 12.5751 6.60703C12.3628 6.10672 12.0444 5.46998 11.7867 5C9.60359 5.36385 7.52658 6.01576 5.58451 6.91024C1.65791 12.7016 0.596658 18.3565 1.12728 23.9356C3.73491 25.8307 6.2516 26.9829 8.7243 27.741C9.33073 26.9223 9.87652 26.0429 10.3465 25.1182C9.45202 24.7846 8.60302 24.3753 7.78434 23.8901C7.99659 23.7386 8.20885 23.5718 8.40594 23.405C13.3483 25.664 18.7015 25.664 23.5832 23.405C23.7955 23.5718 23.9926 23.7386 24.2048 23.8901C23.3861 24.3753 22.5372 24.7846 21.6427 25.1182C22.1127 26.0429 22.6585 26.9223 23.2648 27.741C25.736 26.9829 28.2679 25.8307 30.8618 23.9356C31.5137 17.4772 29.8294 11.8678 26.4335 6.91024ZM11.0287 20.4941C9.54296 20.4941 8.3301 19.1449 8.3301 17.4924C8.3301 15.8399 9.51263 14.4905 11.0287 14.4905C12.5296 14.4905 13.7576 15.8399 13.7272 17.4924C13.7272 19.1449 12.5296 20.4941 11.0287 20.4941ZM20.9908 20.4941C19.505 20.4941 18.2906 19.1449 18.2906 17.4924C18.2906 15.8399 19.4747 14.4905 20.9908 14.4905C22.4917 14.4905 23.7197 15.8399 23.6893 17.4924C23.6893 19.1449 22.5069 20.4941 20.9908 20.4941Z" fill="#FBFCFC"/>
</svg>
