<svg width="19" height="19" viewBox="0 0 19 19" fill="none" xmlns="http://www.w3.org/2000/svg">
<path d="M9.49959 1.50055e-05C6.49734 1.50055e-05 3.82074 1.39698 2.07971 3.57385C2.03553 3.60428 2.00155 3.64743 1.98249 3.69751C0.740967 5.30307 0 7.31496 0 9.49996C0 14.7434 4.25631 19 9.49981 19C14.7433 19 19 14.7434 19 9.49996C19 7.32233 18.2644 5.31634 17.0304 3.71378V3.71392C17.0113 3.64862 16.9677 3.59321 16.9088 3.55908C15.1671 1.39061 12.4951 0 9.49986 0L9.49959 1.50055e-05ZM9.2957 0.635482L9.27797 5.32442C8.04545 5.30935 6.87514 5.17002 5.81695 4.93185C6.00946 4.28042 6.24012 3.68282 6.50368 3.15594C7.25792 1.64789 8.25053 0.740743 9.29583 0.635822L9.2957 0.635482ZM9.82523 0.654098C10.8255 0.814699 11.7708 1.70649 12.4955 3.15576C12.7591 3.68294 12.9902 4.28054 13.1827 4.93212C12.1492 5.16467 11.0084 5.30267 9.80723 5.32306L9.82496 0.654173L9.82523 0.654098ZM7.77742 0.696354C7.10102 1.18998 6.5087 1.96241 6.03042 2.91861C5.74777 3.48362 5.50312 4.11787 5.30114 4.80505C4.27059 4.53231 3.36369 4.1647 2.63192 3.72901C3.9253 2.19082 5.7259 1.09471 7.77742 0.696354ZM11.2219 0.696354C13.2737 1.09482 15.0742 2.19124 16.3678 3.72943C15.6361 4.16515 14.7291 4.5323 13.6986 4.80505C13.4966 4.11787 13.2518 3.48358 12.9693 2.91861C12.491 1.96241 11.8984 1.18998 11.2219 0.696354ZM2.30001 4.14654C3.09401 4.63011 4.0643 5.02888 5.16074 5.31936C4.87602 6.44506 4.70288 7.69632 4.66933 9.02115L0.543516 9.00549C0.642066 7.18896 1.27975 5.51718 2.30009 4.14673L2.30001 4.14654ZM16.6995 4.14654C17.7324 5.53405 18.3732 7.23045 18.4593 9.07339L14.3305 9.05773C14.2992 7.71943 14.1259 6.45546 13.8386 5.31974C14.9351 5.02927 15.9054 4.63064 16.6994 4.14692L16.6995 4.14654ZM5.67616 5.44596C6.78073 5.6958 7.99612 5.83883 9.27577 5.85388L9.2638 9.0384L5.19888 9.02304C5.23257 7.73867 5.40263 6.52773 5.67626 5.4458L5.67616 5.44596ZM13.323 5.4464C13.5988 6.53737 13.7695 7.75951 13.8013 9.05586L9.79346 9.0405L9.80543 5.85257C11.0548 5.83248 12.2421 5.69079 13.323 5.44628L13.323 5.4464ZM0.53024 9.53508L4.664 9.55074C4.66784 10.9988 4.83671 12.3687 5.13812 13.5925C4.02928 13.8882 3.05013 14.2948 2.25304 14.7881C1.17623 13.3143 0.537805 11.5 0.530429 9.53482L0.53024 9.53508ZM5.19353 9.55281L9.26185 9.56818L9.249 13.0526C7.97052 13.0695 6.75634 13.2138 5.65351 13.4651C5.36377 12.287 5.19754 10.9586 5.19342 9.55271L5.19353 9.55281ZM9.79138 9.57025L13.8052 9.58561C13.7987 10.9793 13.6331 12.2963 13.3456 13.4651C12.2508 13.2157 11.0463 13.0717 9.77822 13.0531L9.79107 9.57022L9.79138 9.57025ZM14.3348 9.58724L18.4678 9.6029C18.4461 11.5419 17.8106 13.3316 16.7459 14.7885C15.9488 14.2953 14.9703 13.8882 13.8617 13.5924C14.1605 12.3789 14.3285 11.0216 14.335 9.58735L14.3348 9.58724ZM9.24672 13.5821L9.22899 18.3554C8.20835 18.2192 7.24177 17.3206 6.5036 15.8446C6.2282 15.2939 5.98855 14.666 5.79115 13.98C6.84727 13.7404 8.01564 13.5993 9.24669 13.582L9.24672 13.5821ZM9.77625 13.5826C10.9986 13.6013 12.1587 13.7421 13.2079 13.9802C13.0105 14.666 12.771 15.2939 12.4954 15.8447C11.7545 17.3262 10.7833 18.2263 9.7584 18.357L9.77613 13.5826L9.77625 13.5826ZM5.27561 14.1075C5.48231 14.8285 5.73554 15.4928 6.03015 16.0817C6.50828 17.0376 7.1003 17.8102 7.7764 18.3039C5.69727 17.8998 3.87526 16.7801 2.57828 15.2093C3.3132 14.7629 4.23012 14.3865 5.27545 14.1077L5.27561 14.1075ZM13.7239 14.1075C14.7696 14.3863 15.6863 14.7632 16.4211 15.2096C15.1242 16.7804 13.3017 17.9 11.2226 18.3038C11.8988 17.8101 12.491 17.0374 12.9693 16.0816C13.2639 15.4927 13.5171 14.8285 13.7238 14.1074L13.7239 14.1075Z" fill="#A569FF"/>
</svg>
