<svg width="17" height="16" viewBox="0 0 17 16" fill="none" xmlns="http://www.w3.org/2000/svg">
<path d="M4.56299 14.2613C4.56299 14.7225 4.75867 15.1647 5.10717 15.4908C5.45567 15.8169 5.92826 16.0001 6.42117 16.0001C6.91394 16.0001 7.38667 15.8169 7.73516 15.4908C8.08353 15.1647 8.27935 14.7225 8.27935 14.2613C8.27935 13.8003 8.08354 13.3581 7.73516 13.032C7.38667 12.7059 6.91394 12.5227 6.42117 12.5227C5.92839 12.5232 5.45608 12.7065 5.10771 13.0325C4.75935 13.3585 4.56339 13.8004 4.56299 14.2613ZM7.14521 14.2613C7.14521 14.4411 7.06886 14.6133 6.93304 14.7404C6.79736 14.8675 6.61315 14.9388 6.42116 14.9388C6.22918 14.9388 6.04495 14.8675 5.90915 14.7404C5.77346 14.6133 5.69712 14.4411 5.69712 14.2613C5.69712 14.0817 5.77346 13.9095 5.90915 13.7824C6.04496 13.6553 6.22917 13.584 6.42116 13.584C6.61302 13.5845 6.79683 13.6559 6.9325 13.7829C7.06818 13.9098 7.14467 14.0818 7.14519 14.2613L7.14521 14.2613Z" fill="white"/>
<path d="M12.3472 14.2613C12.3472 14.7225 12.543 15.1647 12.8915 15.4908C13.24 15.8169 13.7126 16.0001 14.2053 16.0001C14.6983 16.0001 15.1708 15.8169 15.5193 15.4908C15.8678 15.1647 16.0637 14.7225 16.0637 14.2613C16.0637 13.8003 15.8679 13.3581 15.5193 13.032C15.1708 12.7059 14.6983 12.5227 14.2053 12.5227C13.7127 12.5232 13.2404 12.7065 12.892 13.0325C12.5437 13.3585 12.3477 13.8004 12.3472 14.2613ZM14.9294 14.2613C14.9294 14.4411 14.8532 14.6133 14.7174 14.7404C14.5815 14.8675 14.3975 14.9388 14.2053 14.9388C14.0134 14.9388 13.8293 14.8675 13.6935 14.7404C13.5576 14.6133 13.4814 14.4411 13.4814 14.2613C13.4814 14.0817 13.5576 13.9095 13.6935 13.7824C13.8293 13.6553 14.0134 13.584 14.2053 13.584C14.3973 13.5845 14.5812 13.6559 14.7168 13.7829C14.8525 13.9098 14.9288 14.0818 14.9294 14.2613L14.9294 14.2613Z" fill="white"/>
<path d="M4.05213 11.9284H16.6665V10.8671L5.06347 10.8672L4.94624 9.91749L15.5322 8.87571L16.4169 2.57524H4.04451L3.72884 0H0.666504V1.0613H2.7176L4.05213 11.9284ZM15.1296 3.63654L14.5266 7.90802L4.82539 8.86308L4.1827 3.63648L15.1296 3.63654Z" fill="white"/>
</svg>
