<svg width="18" height="14" viewBox="0 0 18 14" fill="none" xmlns="http://www.w3.org/2000/svg">
<path d="M4.94747 0.000125701C4.322 0.0156118 3.81597 0.516637 3.81597 1.12396V1.3178H0.309203C0.138672 1.31847 0.000696851 1.45144 1.7613e-06 1.61565C-0.000275282 1.69508 0.0321408 1.77118 0.0900478 1.82751C0.148091 1.88385 0.226917 1.91562 0.309203 1.91589H3.81597V2.1104C3.81597 2.72733 4.33863 3.23423 4.97783 3.23423H6.78024C7.4194 3.23423 7.94153 2.72733 7.94153 2.1104V1.91589H17.6884H17.6883C17.771 1.91629 17.8503 1.88465 17.9088 1.82831C17.9674 1.77198 18.0001 1.69548 17.9998 1.61564C17.9994 1.53634 17.9664 1.46051 17.908 1.40457C17.8496 1.34877 17.7705 1.31753 17.6883 1.3178H7.9414V1.12395C7.9414 0.507027 7.41941 0.000118661 6.7801 0.000118661H4.97769C4.96772 0.000118661 4.95733 -0.000148327 4.94736 0.000118661L4.94747 0.000125701ZM4.97781 0.595961H6.78022C7.08416 0.595961 7.3209 0.825987 7.3209 1.12396V2.1104C7.3209 2.40838 7.08429 2.63545 6.78022 2.63545H4.97781C4.67387 2.63545 4.43713 2.40837 4.43713 2.1104V1.12396C4.43713 0.825977 4.67374 0.595961 4.97781 0.595961ZM11.2198 5.38206C10.5806 5.38206 10.0586 5.89122 10.0586 6.50814V6.70212L0.309291 6.70199C0.138621 6.70266 0.000507897 6.83603 8.9425e-05 7.0005C0.000782103 7.16471 0.13876 7.29768 0.309291 7.29835H10.0586V7.49233C10.0586 8.10925 10.5806 8.61841 11.2198 8.61841H13.0222C13.6614 8.61841 14.1841 8.10925 14.1841 7.49233V7.29835H17.6884C17.7707 7.29861 17.8498 7.26737 17.9082 7.21157C17.9666 7.15576 17.9996 7.0798 18 7.0005C17.9997 6.92107 17.9669 6.84497 17.9084 6.7889C17.85 6.73296 17.7709 6.70172 17.6884 6.70199H14.1842V6.50801C14.1842 5.89109 13.6615 5.38192 13.0223 5.38192L11.2198 5.38206ZM11.2198 5.98015H13.0222C13.3261 5.98015 13.5629 6.21018 13.5629 6.50814V7.49233C13.5629 7.79031 13.3263 8.02032 13.0222 8.02032H11.2198C10.9159 8.02032 10.6792 7.7903 10.6792 7.49233V6.50814C10.6792 6.21017 10.9159 5.98015 11.2198 5.98015ZM4.97781 10.7659C4.33865 10.7659 3.81595 11.2728 3.81595 11.8897V12.0842H0.309326C0.22704 12.0845 0.148214 12.1163 0.0901709 12.1726C0.0322657 12.229 -0.000151748 12.3051 0.000124869 12.3844C0.000817547 12.5487 0.138795 12.6817 0.309326 12.6823H3.81609V12.8769C3.81609 13.4938 4.33875 14 4.97795 14H6.78036C7.41953 14 7.94166 13.4938 7.94166 12.8769V12.6823H17.6885H17.6884C17.7707 12.6826 17.8498 12.6514 17.9081 12.5956C17.9665 12.5396 17.9995 12.4637 17.9999 12.3844C18.0002 12.3047 17.9675 12.2282 17.9089 12.1718C17.8505 12.1154 17.7711 12.0838 17.6884 12.0842H7.94152V11.8897C7.94152 11.2728 7.41952 10.7659 6.78022 10.7659L4.97781 10.7659ZM4.97781 11.3645H6.78022C7.08416 11.3645 7.3209 11.5916 7.3209 11.8896V12.8767C7.3209 13.1747 7.08429 13.4018 6.78022 13.4018H4.97781C4.67387 13.4018 4.43713 13.1747 4.43713 12.8767V11.8896C4.43713 11.5916 4.67374 11.3645 4.97781 11.3645Z" fill="#A569FF"/>
</svg>
