<svg width="20" height="16" viewBox="0 0 20 16" fill="none" xmlns="http://www.w3.org/2000/svg">
<path d="M19.4233 8.00023C19.4233 7.8055 19.3031 7.54674 19.181 7.42103L12.3022 0.26277C11.9811 -0.0623651 11.4607 -0.0999589 11.0865 0.229874C10.7518 0.525054 10.7434 1.10042 11.0529 1.42088L16.5746 7.15791L0.859788 7.15791C0.384751 7.15791 -3.69329e-07 7.53503 -3.49044e-07 7.99996C-3.28745e-07 8.46519 0.385065 8.842 0.859788 8.842L16.5746 8.842L11.0529 14.579C10.7434 14.8995 10.7653 15.4608 11.0865 15.7697C11.4253 16.096 11.9862 16.067 12.3022 15.7368L19.181 8.57888C19.3831 8.38474 19.42 8.19764 19.4233 7.99998L19.4233 8.00023Z" fill="#A569FF"/>
</svg>
