<?xml version="1.0" encoding="UTF-8"?>
<svg width="24px" height="25px" viewBox="0 0 24 25" version="1.1" xmlns="http://www.w3.org/2000/svg" xmlns:xlink="http://www.w3.org/1999/xlink">
    <title>icon-cart</title>
    <g id="Page-1" stroke="none" stroke-width="1" fill="none" fill-rule="evenodd">
        <g id="icon-cart" fill="#CCCCCC" fill-rule="nonzero">
            <path d="M5.84375,22.0605 C5.84375,22.7739 6.13727,23.458 6.66003,23.9624 C7.18278,24.4668 7.89166,24.7502 8.63102,24.7502 C9.37018,24.7502 10.0793,24.4668 10.602,23.9624 C11.1246,23.458 11.4183,22.7739 11.4183,22.0605 C11.4183,21.3473 11.1246,20.6633 10.602,20.1589 C10.0793,19.6545 9.37018,19.3711 8.63102,19.3711 C7.89186,19.3719 7.18338,19.6555 6.66084,20.1597 C6.13829,20.6639 5.84436,21.3475 5.84375,22.0605 Z M9.71708,22.0605 C9.71708,22.3386 9.60256,22.605 9.39883,22.8016 C9.19531,22.9982 8.91899,23.1085 8.63101,23.1085 C8.34303,23.1085 8.06669,22.9982 7.86299,22.8016 C7.65946,22.605 7.54494,22.3386 7.54494,22.0605 C7.54494,21.7827 7.65946,21.5162 7.86299,21.3197 C8.06671,21.1231 8.34303,21.0128 8.63101,21.0128 C8.9188,21.0135 9.19452,21.124 9.39802,21.3204 C9.60154,21.5168 9.71627,21.7829 9.71708,22.0605 L9.71708,22.0605 Z" id="Shape"></path>
            <path d="M17.5215,22.0605 C17.5215,22.7739 17.8152,23.458 18.338,23.9624 C18.8607,24.4668 19.5696,24.7502 20.3088,24.7502 C21.0481,24.7502 21.757,24.4668 22.2797,23.9624 C22.8025,23.458 23.0962,22.7739 23.0962,22.0605 C23.0962,21.3473 22.8025,20.6633 22.2797,20.1589 C21.757,19.6545 21.0481,19.3711 20.3088,19.3711 C19.5698,19.3719 18.8613,19.6555 18.3388,20.1597 C17.8162,20.6639 17.5223,21.3475 17.5215,22.0605 Z M21.3948,22.0605 C21.3948,22.3386 21.2805,22.605 21.0768,22.8016 C20.873,22.9982 20.5969,23.1085 20.3087,23.1085 C20.0208,23.1085 19.7446,22.9982 19.5409,22.8016 C19.3372,22.605 19.2229,22.3386 19.2229,22.0605 C19.2229,21.7827 19.3372,21.5162 19.5409,21.3197 C19.7446,21.1231 20.0208,21.0128 20.3087,21.0128 C20.5967,21.0135 20.8725,21.124 21.076,21.3204 C21.2795,21.5168 21.394,21.7829 21.3948,22.0605 L21.3948,22.0605 Z" id="Shape"></path>
            <path d="M5.07844,18.4518 L24,18.4518 L24,16.8101 L6.59545,16.8102 L6.41961,15.3411 L22.2986,13.7296 L23.6255,3.98357 L5.06701,3.98357 L4.5935,0 L0,0 L0,1.6417 L3.07665,1.6417 L5.07844,18.4518 Z M21.6946,5.62528 L20.7901,12.2327 L6.23832,13.7101 L5.27429,5.62518 L21.6946,5.62528 Z" id="Shape"></path>
        </g>
    </g>
</svg>