<svg width="19" height="15" viewBox="0 0 19 15" fill="none" xmlns="http://www.w3.org/2000/svg">
<path d="M16.1079 1.26C14.8692 0.669999 13.5538 0.239998 12.1807 0C12.0079 0.310002 11.8159 0.729996 11.6814 1.06C10.221 0.839995 8.77115 0.839995 7.33088 1.06C7.19645 0.729996 6.9948 0.310002 6.83157 0C5.44894 0.239998 4.1335 0.669999 2.90352 1.26C0.416674 5.07998 -0.25545 8.80997 0.0806114 12.4899C1.73211 13.7399 3.32601 14.5 4.89206 15C5.27613 14.46 5.62179 13.8799 5.91945 13.27C5.35294 13.05 4.81525 12.78 4.29675 12.4599C4.43118 12.36 4.56561 12.25 4.69043 12.14C7.82059 13.63 11.211 13.63 14.3027 12.14C14.4371 12.25 14.562 12.36 14.6964 12.4599C14.1779 12.78 13.6402 13.05 13.0737 13.27C13.3713 13.8799 13.717 14.46 14.1011 15C15.6662 14.5 17.2697 13.7399 18.9125 12.4899C19.3253 8.23 18.2586 4.53002 16.1079 1.26ZM6.35152 10.22C5.41054 10.22 4.6424 9.32999 4.6424 8.24C4.6424 7.15002 5.39133 6.25997 6.35152 6.25997C7.30207 6.25997 8.07979 7.15002 8.06059 8.24C8.06059 9.32999 7.30207 10.22 6.35152 10.22ZM12.6608 10.22C11.7198 10.22 10.9507 9.32999 10.9507 8.24C10.9507 7.15002 11.7006 6.25997 12.6608 6.25997C13.6114 6.25997 14.3891 7.15002 14.3699 8.24C14.3699 9.32999 13.621 10.22 12.6608 10.22Z" fill="#A569FF"/>
</svg>
