<svg width="99" height="99" viewBox="0 0 99 99" fill="none" xmlns="http://www.w3.org/2000/svg">
<path d="M49.3038 -0.00012207L52.1414 6.00922L55.7392 0.421677L57.7682 6.75L62.0645 1.67986L63.2501 8.21889L68.1715 3.7529L68.4935 10.3907L73.9556 6.60533L73.4085 13.2284L79.318 10.1883L77.911 16.6833L84.1668 14.4406L81.9241 20.6964L88.4191 19.2894L85.379 25.1989L92.0021 24.6518L88.2166 30.1139L94.8545 30.4359L90.3885 35.3572L96.9275 36.5429L91.8574 40.8392L98.1857 42.8682L92.5982 46.466L98.6075 49.3036L92.5982 52.1413L98.1857 55.7391L91.8574 57.7681L96.9275 62.0644L90.3885 63.25L94.8545 68.1714L88.2166 68.4933L92.0021 73.9555L85.379 73.4083L88.4191 79.3179L81.9241 77.9109L84.1668 84.1667L77.911 81.9239L79.318 88.4189L73.4085 85.3789L73.9556 92.0019L68.4935 88.2165L68.1715 94.8544L63.2501 90.3884L62.0645 96.9274L57.7682 91.8573L55.7392 98.1856L52.1414 92.598L49.3038 98.6074L46.4661 92.598L42.8683 98.1856L40.8393 91.8573L36.543 96.9274L35.3574 90.3884L30.436 94.8544L30.114 88.2165L24.6519 92.0019L25.1991 85.3789L19.2895 88.4189L20.6965 81.9239L14.4407 84.1667L16.6835 77.9109L10.1885 79.3179L13.2285 73.4083L6.60545 73.9555L10.3909 68.4933L3.75303 68.1714L8.21901 63.25L1.67999 62.0644L6.75013 57.7681L0.421799 55.7391L6.00935 52.1413L0 49.3036L6.00935 46.466L0.421799 42.8682L6.75013 40.8392L1.67999 36.5429L8.21901 35.3572L3.75303 30.4359L10.3909 30.1139L6.60545 24.6518L13.2285 25.1989L10.1885 19.2894L16.6835 20.6964L14.4407 14.4406L20.6965 16.6833L19.2895 10.1883L25.1991 13.2284L24.6519 6.60533L30.114 10.3907L30.436 3.7529L35.3574 8.21889L36.543 1.67986L40.8393 6.75L42.8683 0.421677L46.4661 6.00922L49.3038 -0.00012207Z" fill="white"/>
<path d="M31.5152 29.6103C31.556 29.5143 31.692 29.5143 31.7329 29.6103L33.6775 34.1826C33.9968 34.9334 34.5947 35.5313 35.3456 35.8507L39.9179 37.7953C40.0139 37.8361 40.0139 37.9722 39.9179 38.013L35.3456 39.9576C34.5947 40.277 33.9968 40.8749 33.6775 41.6257L31.7329 46.198C31.692 46.294 31.556 46.294 31.5152 46.198L29.5705 41.6257C29.2512 40.8749 28.6533 40.277 27.9024 39.9576L23.3301 38.013C23.2342 37.9722 23.2342 37.8361 23.3301 37.7953L27.9024 35.8507C28.6533 35.5313 29.2512 34.9334 29.5705 34.1826L31.5152 29.6103Z" fill="#FF0000"/>
<path d="M67.0566 29.6047C67.0965 29.5108 67.2296 29.5108 67.2695 29.6047L69.2275 34.2083C69.5398 34.9427 70.1246 35.5274 70.8589 35.8397L75.4626 37.7977C75.5564 37.8376 75.5564 37.9707 75.4626 38.0106L70.8589 39.9686C70.1246 40.2809 69.5398 40.8657 69.2275 41.6L67.2695 46.2036C67.2296 46.2975 67.0965 46.2975 67.0566 46.2036L65.0986 41.6C64.7863 40.8657 64.2016 40.2809 63.4672 39.9686L58.8636 38.0106C58.7697 37.9707 58.7697 37.8376 58.8636 37.7977L63.4672 35.8397C64.2016 35.5274 64.7863 34.9427 65.0986 34.2083L67.0566 29.6047Z" fill="#FF0000"/>
<path d="M55.3512 47.4891C55.3512 50.5717 52.7892 53.0707 49.3045 53.0707C45.8198 53.0707 43.2578 50.5717 43.2578 47.4891" stroke="#FF0000" stroke-width="2.79078" stroke-linecap="round"/>
</svg>
